<svg xmlns="http://www.w3.org/2000/svg" width="512" height="512"><g fill="#ffb80e"><path d="M256 0C149.969 0 64 85.969 64 192c0 43.188 14.25 83 38.313 115.094L256 512l153.688-204.906C433.75 275 448 235.188 448 192 448 85.969 362.031 0 256 0zm0 17.477a173.982 173.982 0 01173.982 173.98A173.982 173.982 0 01256 365.439 173.982 173.982 0 0182.018 191.457 173.982 173.982 0 01256 17.477z"/><path d="M306.208 174.16c15.363 8.232 44.954 5.711 67.45-16.79 22.315-22.31 30.752-54.935 9.655-76.728l.017-.008c-.1-.092-.46-.45-.551-.547 0 0 0 .009-.017.009-21.78-21.088-54.4-12.656-76.722 9.655-22.497 22.502-25.018 52.093-16.79 67.455-2.12 12.58-19.377 26.228-34.856 35.086-11.938-7.364-26.992-20.378-28.573-46.543 1.143-10.452-2.3-21.313-10.298-29.312-.734-.734-2.845-2.52-2.845-2.52L154.364 68.5l-5.312 5.308 63.275 59.361-6.863 6.864-61.302-61.306-5.629 5.624 61.293 61.31-5.795 5.795-61.293-61.292-5.128 5.082 60.926 60.93-6.98 7.006-59.2-62.67-5.811 5.828 48.391 60.976s1.152 1.18 1.64 1.615c7.043 6.154 15.884 9.058 24.634 8.812.062 0 .154.017.187.025 23.04.23 37.277 14.237 46.231 26.32-21.909 21.922-89.903 89.924-89.903 89.924l.017.016c-.067.05-.155.109-.221.175-5.537 5.533-5.537 14.512 0 20.062.283.275 1.351 1.335 1.623 1.619 5.537 5.541 14.529 5.541 20.057.009.067-.067.125-.15.18-.225l.016.024s63.142-63.145 87.35-87.345c23.04 23.031 86.904 86.878 86.904 86.878l.017-.016c.05.059.074.141.159.225 5.44 5.432 14.32 5.432 19.768-.016 5.45-5.458 5.466-14.303.008-19.77-.083-.074-.166-.1-.233-.174l.016-.016s-70.539-70.531-90.108-90.117c8.837-14.405 21.338-29.23 32.93-31.182zm-7.494-42.134c.333-3.743 1.084-8.049 2.328-12.605a75.268 75.268 0 012.378-6.956c1.043-2.394 2.137-4.623 3.739-6.955 3.062-4.477 6.792-7.957 10.506-10.877 3.672-2.959 7.402-5.258 10.715-7.002 3.288-1.777 6.233-2.929 8.336-3.588 2.136-.701 3.38-.793 3.38-.793s-1.027.776-2.562 2.211c-1.552 1.444-3.763 3.514-6.425 5.992-5.108 4.982-12.384 11.45-17.542 18.484-1.243 1.606-2.352 3.726-3.32 5.666-1.052 1.982-1.987 4.03-2.838 6.058-1.77 4.03-3.23 7.936-4.49 11.303-1.226 3.376-2.186 6.23-2.753 8.258-.618 2.032-.534 3.238-.434 3.238-.05.075-.81-1.093-1.034-3.334-.277-2.216-.335-5.366.016-9.1z"/></g></svg>