<?xml version="1.0" encoding="UTF-8" standalone="no"?>
<!-- Generator: Adobe Illustrator 16.0.0, SVG Export Plug-In . SVG Version: 6.00 Build 0)  -->

<svg
   xmlns:dc="http://purl.org/dc/elements/1.1/"
   xmlns:cc="http://creativecommons.org/ns#"
   xmlns:rdf="http://www.w3.org/1999/02/22-rdf-syntax-ns#"
   xmlns:svg="http://www.w3.org/2000/svg"
   xmlns="http://www.w3.org/2000/svg"
   xmlns:sodipodi="http://sodipodi.sourceforge.net/DTD/sodipodi-0.dtd"
   xmlns:inkscape="http://www.inkscape.org/namespaces/inkscape"
   version="1.1"
   id="Layer_1"
   x="0px"
   y="0px"
   width="512px"
   height="512px"
   viewBox="0 0 512 512"
   enable-background="new 0 0 512 512"
   xml:space="preserve"
   sodipodi:docname="restooo-logo.svg"
   inkscape:version="0.92.3 (2405546, 2018-03-11)"><metadata
   id="metadata9"><rdf:RDF><cc:Work
       rdf:about=""><dc:format>image/svg+xml</dc:format><dc:type
         rdf:resource="http://purl.org/dc/dcmitype/StillImage" /></cc:Work></rdf:RDF></metadata><defs
   id="defs7" /><sodipodi:namedview
   pagecolor="#ffffff"
   bordercolor="#666666"
   borderopacity="1"
   objecttolerance="10"
   gridtolerance="10"
   guidetolerance="10"
   inkscape:pageopacity="0"
   inkscape:pageshadow="2"
   inkscape:window-width="1920"
   inkscape:window-height="986"
   id="namedview5"
   showgrid="false"
   inkscape:zoom="0.921875"
   inkscape:cx="549.05283"
   inkscape:cy="256.48913"
   inkscape:window-x="-11"
   inkscape:window-y="-11"
   inkscape:window-maximized="1"
   inkscape:current-layer="g856" />

<g
   id="g978"><g
     id="g856"><path
       style="fill:#ffb80e;fill-opacity:1"
       d="M 256 0 C 149.969 0 64 85.969 64 192 C 64 235.188 78.249498 274.99975 102.3125 307.09375 L 256 512 L 409.6875 307.09375 C 433.7495 274.99975 448 235.188 448 192 C 448 85.969 362.031 0 256 0 z M 256 17.476562 A 173.98161 173.98161 0 0 1 429.98242 191.45703 A 173.98161 173.98161 0 0 1 256 365.43945 A 173.98161 173.98161 0 0 1 82.017578 191.45703 A 173.98161 173.98161 0 0 1 256 17.476562 z "
       id="path2" /><g
       style="fill:#ffb80e;fill-opacity:1"
       transform="matrix(0.71822978,0,0,0.71822978,116.54486,54.54456)"
       id="g867"><g
         style="fill:#ffb80e;fill-opacity:1"
         id="g835">
	<path
   inkscape:connector-curvature="0"
   d="m 264.07,166.541 c 21.39,11.462 62.59,7.953 93.913,-23.377 31.068,-31.062 42.815,-76.485 13.442,-106.828 l 0.023,-0.012 c -0.139,-0.128 -0.639,-0.627 -0.767,-0.761 0,0 0,0.012 -0.023,0.012 -30.324,-29.36 -75.742,-17.62 -106.821,13.443 -31.324,31.33 -34.833,72.53 -23.377,93.919 -2.951,17.515 -26.979,36.518 -48.531,48.851 -16.621,-10.253 -37.581,-28.373 -39.783,-64.803 1.592,-14.552 -3.201,-29.674 -14.337,-40.811 -1.022,-1.022 -3.962,-3.509 -3.962,-3.509 l -81.191,-63.234 -7.396,7.39 88.099,82.649 -9.556,9.556 -85.351,-85.357 -7.837,7.831 85.339,85.362 -8.069,8.069 -85.339,-85.338 -7.14,7.076 84.828,84.834 -9.719,9.754 L 8.092,64 0,72.116 67.376,157.013 c 0,0 1.604,1.644 2.283,2.248 9.806,8.569 22.116,12.612 34.298,12.27 0.087,0 0.215,0.023 0.261,0.035 32.079,0.32 51.901,19.822 64.368,36.646 C 138.082,238.733 43.413,333.413 43.413,333.413 l 0.023,0.023 c -0.093,0.07 -0.215,0.151 -0.308,0.244 -7.709,7.703 -7.709,20.205 0,27.932 0.395,0.383 1.882,1.859 2.26,2.254 7.709,7.715 20.229,7.715 27.926,0.012 0.093,-0.093 0.174,-0.209 0.25,-0.313 l 0.023,0.034 c 0,0 87.913,-87.918 121.619,-121.612 32.079,32.067 120.997,120.962 120.997,120.962 l 0.023,-0.023 c 0.069,0.082 0.104,0.197 0.221,0.314 7.575,7.563 19.938,7.563 27.524,-0.023 7.587,-7.599 7.61,-19.914 0.011,-27.525 -0.115,-0.104 -0.231,-0.139 -0.324,-0.243 l 0.022,-0.023 c 0,0 -98.212,-98.201 -125.458,-125.47 12.304,-20.056 29.709,-40.697 45.848,-43.415 z m -10.434,-58.663 c 0.464,-5.211 1.51,-11.206 3.241,-17.55 0.918,-3.154 1.998,-6.402 3.312,-9.684 1.452,-3.334 2.975,-6.437 5.205,-9.684 4.264,-6.233 9.457,-11.079 14.628,-15.145 5.112,-4.119 10.306,-7.32 14.918,-9.748 4.578,-2.475 8.679,-4.078 11.607,-4.996 2.974,-0.976 4.705,-1.104 4.705,-1.104 0,0 -1.429,1.081 -3.566,3.079 -2.161,2.01 -5.24,4.892 -8.946,8.342 -7.111,6.937 -17.242,15.941 -24.423,25.735 -1.731,2.237 -3.276,5.188 -4.624,7.889 -1.464,2.76 -2.766,5.612 -3.95,8.435 -2.464,5.612 -4.497,11.049 -6.251,15.738 -1.708,4.7 -3.044,8.673 -3.834,11.497 -0.86,2.829 -0.744,4.508 -0.604,4.508 -0.069,0.105 -1.127,-1.522 -1.44,-4.642 -0.385,-3.085 -0.466,-7.471 0.022,-12.67 z"
   id="path833"
   style="fill:#ffb80e;fill-opacity:1" />
</g><g
         style="fill:#ffb80e;fill-opacity:1"
         id="g837">
</g><g
         style="fill:#ffb80e;fill-opacity:1"
         id="g839">
</g><g
         style="fill:#ffb80e;fill-opacity:1"
         id="g841">
</g><g
         style="fill:#ffb80e;fill-opacity:1"
         id="g843">
</g><g
         style="fill:#ffb80e;fill-opacity:1"
         id="g845">
</g><g
         style="fill:#ffb80e;fill-opacity:1"
         id="g847">
</g><g
         style="fill:#ffb80e;fill-opacity:1"
         id="g849">
</g><g
         style="fill:#ffb80e;fill-opacity:1"
         id="g851">
</g><g
         style="fill:#ffb80e;fill-opacity:1"
         id="g853">
</g><g
         style="fill:#ffb80e;fill-opacity:1"
         id="g855">
</g><g
         style="fill:#ffb80e;fill-opacity:1"
         id="g857">
</g><g
         style="fill:#ffb80e;fill-opacity:1"
         id="g859">
</g><g
         style="fill:#ffb80e;fill-opacity:1"
         id="g861">
</g><g
         style="fill:#ffb80e;fill-opacity:1"
         id="g863">
</g><g
         style="fill:#ffb80e;fill-opacity:1"
         id="g865">
</g></g></g></g></svg>